# Blender 5.0.0
# www.blender.org
o TallGrass
v 0.800011 0.600021 0.800011
v 0.800011 -1.000000 0.800011
v -0.800010 -1.000000 0.800011
v -0.800011 0.600021 0.800011
v -0.800011 0.600021 -0.800011
v -0.800011 -1.000000 -0.800011
v 0.800011 -1.000000 -0.800011
v 0.800010 0.600022 -0.800011
vn 0.7071 -0.0000 0.7071
vn 0.7071 -0.0000 -0.7071
vt 1.000000 1.000000
vt 0.000000 -0.000000
vt 1.000000 0.000000
vt 1.000000 1.000000
vt -0.000000 1.000000
vt 1.000000 0.000000
s 0
f 3/1/1 8/2/1 4/3/1
f 5/2/2 2/4/2 6/5/2
f 3/1/1 7/5/1 8/2/1
f 5/2/2 1/6/2 2/4/2
